<svg width="500" height="500" viewBox="0 0 500 500" fill="none" xmlns="http://www.w3.org/2000/svg">
<rect width="500" height="500" fill="url(#paint0_radial_276_9)"/>
<g filter="url(#filter0_d_276_9)">
<path d="M410 178.561V330.001C410.001 342.244 405.323 354.025 396.923 362.933C388.524 371.841 377.038 377.202 364.816 377.921L362 378.001H138C125.757 378.001 113.976 373.323 105.068 364.924C96.1599 356.525 90.7983 345.039 90.08 332.817L90 330.001V178.561L241.12 279.313L242.976 280.369C245.163 281.437 247.566 281.993 250 281.993C252.434 281.993 254.837 281.437 257.024 280.369L258.88 279.313L410 178.561Z" fill="white"/>
<path d="M362.001 122C379.281 122 394.433 131.12 402.881 144.832L250.001 246.752L97.1211 144.832C101.133 138.316 106.645 132.854 113.196 128.902C119.748 124.95 127.15 122.622 134.785 122.112L138.001 122H362.001Z" fill="white"/>
</g>
<defs>
<filter id="filter0_d_276_9" x="74" y="116.667" width="352" height="288" filterUnits="userSpaceOnUse" color-interpolation-filters="sRGB">
<feFlood flood-opacity="0" result="BackgroundImageFix"/>
<feColorMatrix in="SourceAlpha" type="matrix" values="0 0 0 0 0 0 0 0 0 0 0 0 0 0 0 0 0 0 127 0" result="hardAlpha"/>
<feOffset dy="10.6667"/>
<feGaussianBlur stdDeviation="8"/>
<feComposite in2="hardAlpha" operator="out"/>
<feColorMatrix type="matrix" values="0 0 0 0 0 0 0 0 0 0 0 0 0 0 0 0 0 0 0.25 0"/>
<feBlend mode="normal" in2="BackgroundImageFix" result="effect1_dropShadow_276_9"/>
<feBlend mode="normal" in="SourceGraphic" in2="effect1_dropShadow_276_9" result="shape"/>
</filter>
<radialGradient id="paint0_radial_276_9" cx="0" cy="0" r="1" gradientUnits="userSpaceOnUse" gradientTransform="translate(250) rotate(90) scale(500)">
<stop stop-color="#27C1CB"/>
<stop offset="1" stop-color="#006ACC"/>
</radialGradient>
</defs>
</svg>
