<svg width="500" height="500" viewBox="0 0 500 500" fill="none" xmlns="http://www.w3.org/2000/svg">
<path d="M0 0H500V500H0V0Z" fill="#FFFF64"/>
<path d="M419.96 223.72C419.81 215.079 418.905 206.539 417.499 198.05C412.023 166 398.56 137.717 377.612 112.951C375.452 110.389 373.191 107.928 370.83 105.516C369.373 104.009 367.515 103.859 366.058 104.863C364.651 105.818 364.249 107.275 364.852 109.334C365.003 109.837 365.204 110.289 365.355 110.741C373.392 132.191 377.511 154.345 377.662 177.252C377.461 181.422 377.26 185.591 377.059 189.761C376.457 201.164 374.648 212.367 371.785 223.368C362.592 258.784 344.808 289.227 317.983 314.093C283.019 346.495 241.475 363.173 193.852 364.529C181.845 364.881 169.94 363.876 158.134 361.816C146.078 359.757 134.273 356.542 122.869 352.121C120.358 351.167 118.599 351.619 117.595 353.377C116.59 355.035 116.992 356.592 118.951 358.451C120.609 360.008 122.266 361.515 123.974 363.022C156.728 391.405 194.856 406.023 238.109 407.279C248.558 407.581 259.007 406.777 269.355 405.069C306.63 399.041 339.182 383.116 366.058 356.592C402.93 320.222 420.965 275.764 419.96 223.72Z" fill="black"/>
<path d="M133.117 272.548C134.574 271.443 134.825 269.986 134.021 267.525C133.921 267.274 133.871 267.073 133.77 266.822C127.541 249.239 125.783 231.155 128.445 212.718C131.962 188.455 142.26 167.456 159.039 149.673C160.395 148.216 161.048 146.76 161.048 144.75C160.998 138.471 160.998 132.191 160.998 125.912C160.998 119.733 160.998 113.504 160.998 107.325C160.998 103.306 159.792 102.05 155.773 102.05C143.365 102.05 131.007 102.05 118.599 102C116.54 102 114.882 102.603 113.425 104.009C92.8286 124.053 81.8774 148.518 80.1694 177.102C79.5163 188.003 80.7722 198.803 83.5854 209.403C90.6183 235.827 105.488 256.674 128.044 272.046C130.304 273.603 131.61 273.704 133.117 272.548Z" fill="black"/>
<path d="M201.789 193.78C204.853 216.687 226.505 232.863 249.311 229.196C269.556 225.93 284.275 208.7 284.275 188.153C284.275 184.034 284.275 179.965 284.275 175.846C284.275 170.471 284.275 165.146 284.275 159.77C284.275 156.354 285.179 155.5 288.595 155.45C291.76 155.4 294.975 155.5 298.14 155.4C301.054 155.3 302.36 153.541 301.857 150.728C301.757 150.226 301.707 149.723 301.606 149.271C297.788 133.146 290.856 118.578 280.809 105.416C278.95 103.005 276.89 102.1 273.977 102.151C265.537 102.251 257.098 102.151 248.608 102.201C247.704 102.201 246.749 102.251 245.845 102.402C243.735 102.754 242.781 103.758 242.479 105.868C242.379 106.672 242.429 107.526 242.429 108.38C242.429 121.541 242.429 134.653 242.429 147.814C242.429 153.24 241.374 158.464 239.164 163.438C232.633 177.805 221.33 185.792 205.757 187.902C202.492 188.354 201.538 189.409 201.688 192.624C201.739 192.926 201.739 193.378 201.789 193.78Z" fill="black"/>
</svg>
