<svg width="500" height="500" viewBox="0 0 500 500" fill="none" xmlns="http://www.w3.org/2000/svg">
<path d="M0 0H500V500H0V0Z" fill="url(#paint0_linear_22_9)"/>
<path fill-rule="evenodd" clip-rule="evenodd" d="M250.184 67C149.441 67 68 149.041 68 250.538C68 331.669 120.182 400.345 192.572 424.652C201.623 426.479 204.938 420.703 204.938 415.843C204.938 411.588 204.64 397.004 204.64 381.807C153.961 392.749 143.407 359.929 143.407 359.929C135.263 338.657 123.195 333.191 123.195 333.191C106.608 321.947 124.403 321.947 124.403 321.947C142.803 323.163 152.458 340.787 152.458 340.787C168.743 368.741 194.985 360.842 205.542 355.979C207.049 344.128 211.878 335.924 217.006 331.367C176.585 327.112 134.058 311.312 134.058 240.812C134.058 220.757 141.293 204.348 152.756 191.587C150.947 187.03 144.612 168.187 154.568 142.967C154.568 142.967 169.951 138.104 204.636 161.806C219.486 157.789 234.8 155.745 250.184 155.728C265.567 155.728 281.248 157.857 295.728 161.806C330.417 138.104 345.799 142.967 345.799 142.967C355.756 168.187 349.417 187.03 347.608 191.587C359.373 204.348 366.31 220.757 366.31 240.812C366.31 311.312 323.782 326.806 283.06 331.367C289.698 337.14 295.426 348.077 295.426 365.399C295.426 390.012 295.128 409.765 295.128 415.84C295.128 420.703 298.447 426.479 307.493 424.655C379.884 400.341 432.066 331.669 432.066 250.538C432.364 149.041 350.625 67 250.184 67Z" fill="white"/>
<defs>
<linearGradient id="paint0_linear_22_9" x1="250" y1="0" x2="250" y2="500" gradientUnits="userSpaceOnUse">
<stop stop-color="#1B1E23"/>
<stop offset="1" stop-color="#050505"/>
</linearGradient>
</defs>
</svg>
