<svg width="500" height="500" viewBox="0 0 500 500" fill="none" xmlns="http://www.w3.org/2000/svg">
<path d="M0 0H500V500H0V0Z" fill="white"/>
<path d="M85.9773 388.82H146.591V241.616L60 176.672V362.843C60 377.195 71.6248 388.82 85.9773 388.82Z" fill="#4285F4"/>
<path d="M354.409 388.82H415.023C429.375 388.82 441 377.195 441 362.843V176.672L354.409 241.616V388.82Z" fill="#34A853"/>
<path d="M354.409 129.047V241.616L441 176.672V142.036C441 109.932 404.35 91.5967 378.654 110.863L354.409 129.047Z" fill="#FBBC04"/>
<path fill-rule="evenodd" clip-rule="evenodd" d="M146.591 241.616L146.591 129.047L250.5 206.979L354.409 129.047V241.616L250.5 319.547L146.591 241.616Z" fill="#EA4335"/>
<path d="M60 142.036V176.672L146.591 241.616L146.591 129.047L122.345 110.863C96.6496 91.5967 60 109.932 60 142.036Z" fill="#C5221F"/>
</svg>
