<svg width="500" height="500" viewBox="0 0 500 500" fill="none" xmlns="http://www.w3.org/2000/svg">
<path d="M0 0H500V500H0V0Z" fill="url(#paint0_radial_20_10)"/>
<path d="M0 0H500V500H0V0Z" fill="url(#paint1_radial_20_10)"/>
<path d="M250.008 65.8205C199.989 65.8205 193.712 66.0393 174.067 66.9333C154.46 67.8312 141.077 70.9354 129.366 75.49C117.253 80.1942 106.977 86.487 96.7405 96.7282C86.4958 106.965 80.2032 117.241 75.4837 129.351C70.9178 141.066 67.8098 154.453 66.9273 174.053C66.0487 193.699 65.8185 199.98 65.8185 250C65.8185 300.02 66.041 306.278 66.9312 325.924C67.8329 345.532 70.937 358.915 75.4876 370.626C80.1955 382.74 86.4881 393.015 96.729 403.253C106.962 413.498 117.237 419.806 129.343 424.51C141.061 429.065 154.448 432.169 174.051 433.067C193.697 433.961 199.97 434.179 249.985 434.179C300.007 434.179 306.265 433.961 325.91 433.067C345.517 432.169 358.916 429.065 370.634 424.51C382.743 419.806 393.003 413.498 403.237 403.253C413.481 393.015 419.774 382.74 424.493 370.63C429.021 358.915 432.129 345.528 433.05 325.928C433.932 306.282 434.162 300.02 434.162 250C434.162 199.98 433.932 193.702 433.05 174.057C432.129 154.449 429.021 141.066 424.493 129.355C419.774 117.241 413.481 106.965 403.237 96.7282C392.992 86.4832 382.747 80.1904 370.622 75.49C358.881 70.9354 345.49 67.8312 325.883 66.9333C306.238 66.0393 299.984 65.8205 249.95 65.8205H250.008ZM233.486 99.0112C238.389 99.0035 243.861 99.0112 250.008 99.0112C299.182 99.0112 305.01 99.1877 324.429 100.07C342.386 100.891 352.132 103.892 358.624 106.413C367.219 109.751 373.347 113.742 379.789 120.188C386.235 126.634 390.225 132.774 393.571 141.369C396.092 147.853 399.096 157.599 399.914 175.557C400.796 194.973 400.988 200.805 400.988 249.958C400.988 299.111 400.796 304.943 399.914 324.359C399.093 342.316 396.092 352.062 393.571 358.547C390.233 367.142 386.235 373.262 379.789 379.705C373.343 386.151 367.223 390.141 358.624 393.48C352.14 396.012 342.386 399.005 324.429 399.826C305.014 400.709 299.182 400.901 250.008 400.901C200.829 400.901 195.001 400.709 175.586 399.826C157.629 398.997 147.883 395.997 141.387 393.476C132.793 390.138 126.653 386.147 120.207 379.701C113.761 373.254 109.771 367.13 106.425 358.532C103.904 352.047 100.9 342.301 100.082 324.343C99.2 304.928 99.0235 299.095 99.0235 249.912C99.0235 200.728 99.2 194.927 100.082 175.511C100.904 157.553 103.904 147.807 106.425 141.315C109.763 132.72 113.761 126.581 120.207 120.134C126.653 113.688 132.793 109.697 141.387 106.352C147.879 103.819 157.629 100.826 175.586 100.001C192.576 99.2338 199.16 99.0035 233.486 98.9652V99.0112ZM348.318 129.593C336.117 129.593 326.217 139.481 326.217 151.687C326.217 163.888 336.117 173.788 348.318 173.788C360.52 173.788 370.419 163.888 370.419 151.687C370.419 139.485 360.52 129.585 348.318 129.585V129.593ZM250.008 155.416C197.775 155.416 155.427 197.766 155.427 250C155.427 302.234 197.775 344.565 250.008 344.565C302.24 344.565 344.573 302.234 344.573 250C344.573 197.766 302.24 155.416 250.008 155.416ZM250.008 188.607C283.911 188.607 311.399 216.092 311.399 250C311.399 283.904 283.911 311.393 250.008 311.393C216.1 311.393 188.616 283.904 188.616 250C188.616 216.092 216.1 188.607 250.008 188.607Z" fill="white"/>
<defs>
<radialGradient id="paint0_radial_20_10" cx="0" cy="0" r="1" gradientUnits="userSpaceOnUse" gradientTransform="translate(132.813 538.51) rotate(-90) scale(495.537 460.888)">
<stop stop-color="#FFDD55"/>
<stop offset="0.1" stop-color="#FFDD55"/>
<stop offset="0.5" stop-color="#FF543E"/>
<stop offset="1" stop-color="#C837AB"/>
</radialGradient>
<radialGradient id="paint1_radial_20_10" cx="0" cy="0" r="1" gradientUnits="userSpaceOnUse" gradientTransform="translate(-83.7526 36.0192) rotate(78.6806) scale(221.507 913.062)">
<stop stop-color="#3771C8"/>
<stop offset="0.128" stop-color="#3771C8"/>
<stop offset="1" stop-color="#6600FF" stop-opacity="0"/>
</radialGradient>
</defs>
</svg>
