<svg width="500" height="500" viewBox="0 0 500 500" fill="none" xmlns="http://www.w3.org/2000/svg">
<path d="M0 0H500V500H0V0Z" fill="url(#paint0_linear_23_611)"/>
<path d="M217.67 289.733L230.061 323.455C230.061 323.455 209.15 343.999 165.406 343.999C111.2 343.999 81 312.215 81 253.294C81 192.049 111.2 156 168.113 156C219.607 156 245.551 174.606 261.809 224.998L274.586 263.759C283.88 292.057 300.137 312.601 339.242 312.601C365.57 312.601 379.507 306.785 379.507 292.446C379.507 281.203 372.927 273.064 353.182 268.411L326.851 262.211C294.719 254.459 281.943 237.79 281.943 211.431C281.943 169.18 316.014 156 350.858 156C390.35 156 414.353 170.342 417.45 205.228L378.734 209.881C377.184 193.213 367.119 186.235 348.535 186.235C331.497 186.235 321.046 193.988 321.046 207.168C321.046 218.797 326.078 225.775 343.112 229.651L367.89 235.077C401.188 242.83 419 259.112 419 290.51C419 329.272 386.48 344 338.467 344C271.487 344 248.257 313.765 235.87 276.168L223.479 237.404C214.185 209.106 203.345 187.012 169.276 187.012C145.655 187.012 121.653 204.067 121.653 251.745C121.653 288.958 140.622 312.216 167.34 312.216C197.535 312.216 217.67 289.733 217.67 289.733Z" fill="white"/>
<defs>
<linearGradient id="paint0_linear_23_611" x1="250" y1="0" x2="250" y2="500" gradientUnits="userSpaceOnUse">
<stop stop-color="#D40000"/>
<stop offset="1" stop-color="#AF0000"/>
</linearGradient>
</defs>
</svg>
