<svg width="500" height="500" viewBox="0 0 500 500" fill="none" xmlns="http://www.w3.org/2000/svg">
<path d="M0 0H500V500H0V0Z" fill="url(#paint0_linear_20_75)"/>
<path d="M193 250C193 294.735 156.735 331 112 331C67.2649 331 31 294.735 31 250C31 205.265 67.2649 169 112 169C156.735 169 193 205.265 193 250Z" fill="#FF7F00"/>
<path d="M331 250C331 294.735 294.735 331 250 331C205.265 331 169 294.735 169 250C169 205.265 205.265 169 250 169C294.735 169 331 205.265 331 250Z" fill="#00E054"/>
<path d="M181 292.448C188.61 280.105 193 265.565 193 250C193 234.435 188.61 219.895 181 207.552C173.39 219.895 169 234.435 169 250C169 265.565 173.39 280.105 181 292.448Z" fill="white"/>
<path d="M469 250C469 294.735 432.735 331 388 331C343.265 331 307 294.735 307 250C307 205.265 343.265 169 388 169C432.735 169 469 205.265 469 250Z" fill="#3FBCF4"/>
<path d="M319 292.448C326.61 280.105 331 265.565 331 250C331 234.435 326.61 219.895 319 207.552C311.39 219.895 307 234.435 307 250C307 265.565 311.39 280.105 319 292.448Z" fill="white"/>
<defs>
<linearGradient id="paint0_linear_20_75" x1="250" y1="0" x2="250" y2="500" gradientUnits="userSpaceOnUse">
<stop stop-color="#303940"/>
<stop offset="1" stop-color="#14171C"/>
</linearGradient>
</defs>
</svg>
