<svg width="500" height="500" viewBox="0 0 500 500" fill="none" xmlns="http://www.w3.org/2000/svg">
<path d="M0 0H500V500H0V0Z" fill="white"/>
<path d="M337.306 154.682V149H273.725V154.682C274.974 154.887 275.859 155.041 276.379 155.143C283.561 156.269 286.977 158.189 289.996 160.902C293.015 163.615 294.524 166.456 294.524 169.425C294.524 173.015 292.059 178.813 288.656 186.817C287.692 189.084 286.653 191.528 285.573 194.149L267.395 228.966L250.205 192.614C245.417 181.762 243.023 173.776 243.023 168.657C243.023 164.971 244.48 161.951 247.395 159.596C250.309 157.242 254.974 155.604 264.759 154.682V149H181.628V154.682C188.082 155.194 191.523 156.346 195.323 158.137C199.122 159.929 202.323 162.412 204.925 165.585C205.161 165.876 205.475 166.238 205.85 166.672C208.125 169.301 212.685 174.57 216.169 182.478L251.058 260.259L222.634 314.701L158.262 192.614C153.473 181.762 151.079 173.776 151.079 168.657C151.079 164.971 152.537 161.951 155.451 159.596C158.366 157.242 163.031 155.604 172.815 154.682V149H88V154.682C94.4536 155.194 99.5802 156.346 103.38 158.137C107.179 159.929 110.38 162.412 112.982 165.585C113.218 165.876 113.531 166.238 113.907 166.672C116.182 169.301 120.742 174.57 124.226 182.478L211.392 362H217.169L258.686 277.264L296.694 362H302.472L378.673 184.782C382.941 174.441 389.446 166.763 394.963 161.746C398.814 158.368 404.487 156.013 411.982 154.682V149H346.717V154.682C347.966 154.887 348.85 155.041 349.371 155.143C356.553 156.269 361.654 158.189 364.672 160.902C367.691 163.615 369.2 166.456 369.2 169.425C369.2 173.015 366.735 178.812 363.332 186.817C362.368 189.084 361.329 191.528 360.249 194.149L307.936 314.701L274.739 244.498L303.997 184.782C308.265 174.441 314.77 166.763 320.287 161.746C324.138 158.368 329.811 156.013 337.306 154.682Z" fill="black"/>
</svg>
