<svg width="500" height="500" viewBox="0 0 500 500" fill="none" xmlns="http://www.w3.org/2000/svg">
<path d="M0 0H500V500H0V0Z" fill="white"/>
<path d="M426.848 161.29C422.601 145.423 410.131 132.953 394.264 128.706C365.534 121 250.276 121 250.276 121C250.276 121 135.02 121 106.29 128.706C90.4227 132.953 77.9534 145.423 73.706 161.29C66 190.02 66 250 66 250C66 250 66 309.98 73.706 338.711C77.9534 354.578 90.4227 367.047 106.29 371.294C135.02 379 250.276 379 250.276 379C250.276 379 365.534 379 394.264 371.294C410.131 367.047 422.601 354.578 426.848 338.711C434.554 309.98 434.554 250 434.554 250C434.554 250 434.523 190.02 426.848 161.29Z" fill="#FF0000"/>
<path d="M213.386 305.282L309.135 250.005L213.386 194.728V305.282Z" fill="white"/>
</svg>
